# xmcd
#
# Track frame offsets: 
#        150
#        23400
#        45450
#        68625
#        87900
#        105000
#        116175
#        137100
#        157200
#        176100
#
# Disc length: 2580 seconds
#
# Revision: 1
# Processed by: cddbd v1.5.2PL0 Copyright (c) Steve Scherf et al.
# Submitted via: ExactAudioCopy v0.99pb4
#
DISCID=7b0a120a
DTITLE=No Credit - Interrelated
DYEAR=1995
DGENRE=Hard Rock
TTITLE0=Miss You Now
TTITLE1=Live Out My Life
TTITLE2=Mrs Lonely
TTITLE3=No More Fight
TTITLE4=Dance The Night Away
TTITLE5=When The Sun Begins To Shine
TTITLE6=Stay Tonight
TTITLE7=Vibration
TTITLE8=Sally
TTITLE9=Let's Go
EXTD=YEAR: 1995
EXTT0=
EXTT1=
EXTT2=
EXTT3=
EXTT4=
EXTT5=
EXTT6=
EXTT7=
EXTT8=
EXTT9=
PLAYORDER=
